<svg width="72" height="72" viewBox="0 0 72 72" fill="none" xmlns="http://www.w3.org/2000/svg">
<g clip-path="url(#clip0_12839_35273)">
<path d="M36 50.79C35.82 50.79 35.64 50.79 35.46 50.82H35.1L38.07 45H34.92L31.38 52.11C30.63 53.58 29.97 55.02 29.97 56.88C29.97 60.48 32.43 63 35.97 63C39.51 63 41.97 60.48 41.97 56.88C41.97 53.28 39.51 50.79 35.97 50.79H36ZM36 60.18C34.17 60.18 33.06 58.92 33.06 56.88C33.06 54.87 34.2 53.61 36 53.61C37.8 53.61 38.94 54.87 38.94 56.88C38.94 58.89 37.8 60.18 36 60.18ZM63.18 10.17L39.33 0.63C38.25 0.21 37.11 0 36 0C34.89 0 33.72 0.21 32.67 0.63L8.82 10.17C7.11 10.86 6 12.51 6 14.34V42C6 58.53 28.5 72 36 72C43.5 72 66 58.53 66 42V14.34C66 12.51 64.89 10.86 63.18 10.17ZM63 42C63 56.55 42.42 69 36 69C29.58 69 9 56.55 9 42V14.34C9 13.71 9.36 13.17 9.93 12.96L33.75 3.42C34.47 3.12 35.22 3 35.97 3C36.72 3 37.5 3.15 38.19 3.42L62.01 12.96C62.58 13.2 62.94 13.74 62.94 14.34V42H63ZM51 24C50.31 24 49.65 24.09 49.02 24.24L45.21 15H49.5C50.34 15 51 15.66 51 16.5C51 16.98 50.76 17.46 50.37 17.73C49.68 18.21 49.53 19.14 50.01 19.83C50.31 20.25 50.76 20.46 51.24 20.46C51.54 20.46 51.84 20.37 52.11 20.19C53.31 19.35 54.03 17.97 54.03 16.5C54.03 14.01 52.02 12 49.53 12H44.64C43.77 12 42.96 12.42 42.48 13.14C42 13.86 41.91 14.76 42.24 15.57L43.23 18H30.6L29.37 15H31.53C32.37 15 33.03 14.34 33.03 13.5C33.03 12.66 32.37 12 31.53 12H25.53C24.69 12 24.03 12.66 24.03 13.5C24.03 14.34 24.69 15 25.53 15H26.1L28.05 19.74L24.69 24.78C23.58 24.27 22.32 24 21.03 24C16.08 24 12.03 28.05 12.03 33C12.03 37.95 16.08 42 21.03 42C25.47 42 29.19 38.76 29.88 34.5H36.03C36.57 34.5 36.99 34.23 37.26 33.81L44.97 22.26L46.26 25.38C43.71 26.97 42.03 29.79 42.03 33C42.03 37.95 46.08 42 51.03 42C55.98 42 60.03 37.95 60.03 33C60.03 28.05 55.98 24 51.03 24H51ZM25.44 29.01C26.07 29.7 26.52 30.54 26.76 31.5H23.79L25.44 29.01ZM21 39C17.7 39 15 36.3 15 33C15 29.7 17.7 27 21 27C21.69 27 22.35 27.15 22.95 27.36L19.74 32.16C19.59 32.43 19.47 32.7 19.47 33C19.47 33.84 20.13 34.5 20.97 34.5H26.76C26.1 37.08 23.76 39 20.97 39H21ZM29.85 31.5C29.52 29.52 28.56 27.78 27.15 26.46L29.4 23.1L32.85 31.5H29.85ZM35.76 30.63L31.8 21H42.21L35.79 30.63H35.76ZM51 39C47.7 39 45 36.3 45 33C45 31.05 45.96 29.31 47.4 28.23L49.59 33.57C49.83 34.14 50.4 34.5 50.97 34.5C51.15 34.5 51.36 34.47 51.54 34.38C52.32 34.08 52.68 33.18 52.35 32.43L50.16 27.09C50.43 27.06 50.7 27 50.97 27C54.27 27 56.97 29.7 56.97 33C56.97 36.3 54.27 39 50.97 39H51Z" fill="white"/>
</g>
<defs>
<clipPath id="clip0_12839_35273">
<rect width="60" height="72" fill="white" transform="translate(6)"/>
</clipPath>
</defs>
</svg>
