<svg xmlns="http://www.w3.org/2000/svg" viewBox="0 0 70.8 70.8" preserveAspectRatio="xMinYMid meet"><defs><style>.cls-1{fill:#ffffff;}</style></defs><g id="Layer_2" data-name="Layer 2"><g id="Fully_merged" data-name="Fully merged"><path class="cls-1" d="M15.45,0V55.35H70.8V0Zm52.1,52.09H18.71V3.26H67.55Z"/><polygon class="cls-1" points="0 3.26 3.25 3.26 3.25 52.09 0 52.09 0 55.35 9.75 55.35 9.75 52.09 6.5 52.09 6.5 3.26 9.75 3.26 9.75 0 0 0 0 3.26"/><polygon class="cls-1" points="67.55 64.3 18.71 64.3 18.71 61.06 15.46 61.06 15.46 70.8 18.71 70.8 18.71 67.56 67.55 67.56 67.55 70.8 70.8 70.8 70.8 61.06 67.55 61.06 67.55 64.3"/><path class="cls-1" d="M38.49,38.52,56.73,20.28a1.63,1.63,0,0,0-2.3-2.3L38.49,33.92l-6.66-6.66a1.64,1.64,0,0,0-2.3,0,1.62,1.62,0,0,0,0,2.3Z"/></g></g></svg>