<svg width="72" height="72" viewBox="0 0 72 72" fill="white" xmlns="http://www.w3.org/2000/svg">
<g clip-path="url(#clip0_12839_35318)">
<path d="M72 12V60C72 63.31 69.31 66 66 66H42C38.69 66 36 63.31 36 60V51H39V60C39 61.65 40.35 63 42 63H66C67.65 63 69 61.65 69 60V12C69 10.35 67.65 9 66 9H42C40.35 9 39 10.35 39 12V18H36V12C36 8.69 38.69 6 42 6H66C69.31 6 72 8.69 72 12ZM39 48H6C2.69 48 0 45.31 0 42V27C0 23.69 2.69 21 6 21H39C42.31 21 45 23.69 45 27V42C45 45.31 42.31 48 39 48ZM3 27V30H42V27C42 25.35 40.65 24 39 24H6C4.35 24 3 25.35 3 27ZM6 45H39C40.65 45 42 43.65 42 42V33H3V42C3 43.65 4.35 45 6 45ZM60 13.5C60 12.67 59.33 12 58.5 12H49.5C48.67 12 48 12.67 48 13.5C48 14.33 48.67 15 49.5 15H58.5C59.33 15 60 14.33 60 13.5ZM54 51C56.48 51 58.5 53.02 58.5 55.5C58.5 57.98 56.48 60 54 60C51.52 60 49.5 57.98 49.5 55.5C49.5 53.02 51.52 51 54 51ZM54 54C53.17 54 52.5 54.67 52.5 55.5C52.5 56.33 53.17 57 54 57C54.83 57 55.5 56.33 55.5 55.5C55.5 54.67 54.83 54 54 54Z" fill="white"/>
</g>
<defs>
<clipPath id="clip0_12839_35318">
<rect width="72" height="60" fill="white" transform="translate(0 6)"/>
</clipPath>
</defs>
</svg>
