<svg xmlns="http://www.w3.org/2000/svg" width="26" height="32"><path d="M9.133 5.44V1.239h-3.16v4.2l1.14-1.138a.624.624 0 0 1 .879 0l1.14 1.138zM5.117 7.508a.616.616 0 0 1-.384-.57v-5.7h-3.16V30.76h22.52V1.24h-13.72v5.698c0 .25-.15.475-.383.571a.627.627 0 0 1-.676-.134l-1.76-1.759-1.761 1.76a.62.62 0 0 1-.676.133zM24.273 0c.585 0 1.06.475 1.06 1.059V30.94a1.06 1.06 0 0 1-1.06 1.059H1.393c-.584 0-1.06-.475-1.06-1.06V1.06C.333.476.809.001 1.393.001h22.88zM5.353 11.786a.621.621 0 0 1 0-1.24h14.96a.62.62 0 0 1 0 1.24H5.353zm0 4.394a.62.62 0 0 1 0-1.24h10.56a.62.62 0 0 1 0 1.24H5.353zm0 4.394a.62.62 0 0 1 0-1.24h13.2a.62.62 0 0 1 0 1.24h-13.2zm10.56 3.155a.62.62 0 0 1 0 1.24H5.353a.62.62 0 0 1 0-1.24h10.56z" fill="#9D9D9D" fill-rule="evenodd"/></svg>