<svg xmlns="http://www.w3.org/2000/svg" width="25" height="32"><path d="M23.94 0C24.524 0 25 .475 25 1.059V30.94c0 .584-.476 1.059-1.06 1.059H1.06c-.584 0-1.06-.475-1.06-1.06V1.06C0 .476.476.001 1.06.001h22.88zm-.181 1.239H1.24V30.76h22.519V1.24zM19.559 23c.464 0 .841.278.841.62 0 .341-.377.62-.84.62H5.241c-.464 0-.84-.279-.84-.62 0-.342.376-.62.84-.62h14.318zM12.396 9c.368 0 .675.244.723.56l.007.087v8.063l3.013-2.865a.794.794 0 0 1 1.029-.033c.265.218.307.58.105.838l-.069.074-4.275 4.069a.786.786 0 0 1-.976.071l-.09-.071-4.267-4.069c-.277-.258-.256-.666.036-.912a.798.798 0 0 1 .94-.038l.089.07 3.006 2.866V9.647c0-.356.328-.647.73-.647z" fill="#9D9D9D" fill-rule="evenodd"/></svg>