<svg xmlns="http://www.w3.org/2000/svg" width="44" height="34" viewBox="0 0 44 34">
    <g fill="none" fill-rule="evenodd">
        <g fill="#9D9D9D" stroke="#FFF" stroke-width=".2">
            <g>
                <g>
                    <path d="M920.979 78.44l-3.544-14.13V64.3l-2.76-10.218h0l-1.4-5.554c-.092-.366-.461-.593-.832-.51l-2.854.638c-.375.084-.612.453-.53.827l1.166 5.299.035.176h-17.414l-.567-2.256c-.094-.373-.474-.599-.849-.506l-2.8.696c-.187.046-.347.168-.441.335-.094.168-.115.367-.056.55l2.49 7.798-11.451 13.1c-.111.127-.172.289-.172.456v.696c-.001.265.149.508.387.626l.848.417-.848.418c-.238.118-.388.361-.387.626v1.391c0 .384.313.696.7.696h17.813c.873 0 1.715-.323 2.36-.909l13.776-12.442 3.881 12.855c.054.18.18.33.348.418.168.086.364.102.544.042l2.1-.695c.347-.115.546-.476.457-.829zm-8.89-28.917l1.042 4.145-1.671.208-.884-4.013 1.513-.34zM880.4 78.343l1.013-.5c.238-.118.388-.36.387-.626v-.695c.001-.265-.149-.508-.387-.626l-1.013-.5 11.538-13.205c.16-.182.214-.435.14-.667l-2.386-7.463 1.4-.348.53 2.108c.078.309.357.526.678.527h18.812c.21 0 .41-.094.542-.256.133-.161.186-.374.144-.579l-.055-.278 1.738-.209 2.428 9-2.13.705c-.09.03-.173.077-.244.14l-.007.003-13.54 12.233c-.025-.704-.32-1.372-.823-1.867l13.632-13.379c.182-.179.251-.442.181-.686l-.84-2.931c-.086-.3-.362-.506-.676-.505H893.42c-.218 0-.423.1-.555.272-.133.172-.178.395-.121.603l4.253 15.84c-.45.032-.884.17-1.267.405l-2.77-10.044c-.068-.248-.269-.438-.522-.495-.252-.056-.516.031-.684.227l-8.725 10.131c-.146.17-.201.399-.148.616l.339 1.391c.076.312.357.532.68.532h10.5c.003.49.137.97.389 1.392H880.4v-.266zm15.4-1.126c0-.768.627-1.391 1.4-1.391.773 0 1.4.623 1.4 1.391 0 .769-.627 1.392-1.4 1.392-.773 0-1.4-.623-1.4-1.392zm-1.467-18.086h16.601l.584 2.03-13.171 12.926-4.014-14.956zm.21 16.695h-10.092l-.126-.513 7.635-8.865 2.583 9.378zm24.118 2.592l-3.796-12.58 1.395-.462 3.203 12.776-.802.266z" transform="translate(-878 -7233) translate(0 5608) translate(0 1578)"/>
                </g>
            </g>
        </g>
    </g>
</svg>
