<svg xmlns="http://www.w3.org/2000/svg" width="32" height="32"><path d="M29.53 15.779l1.885 1.885c.78.78.78 2.048 0 2.828l-10.371 10.37a.651.651 0 0 1-.342.183l-4.713.943a.676.676 0 0 1-.602-.183.666.666 0 0 1-.182-.601l.943-4.713a.653.653 0 0 1 .182-.342l10.371-10.37a2.004 2.004 0 0 1 2.829 0zm-1.885.941L17.417 26.948l-.707 3.535 3.535-.707 10.229-10.228a.668.668 0 0 0 0-.943l-1.886-1.885a.668.668 0 0 0-.943 0zM11.334 0a3.34 3.34 0 0 1 3.267 2.667h2.067c.368 0 .666.298.666.666V4l2 .001a3.336 3.336 0 0 1 3.334 3.333v8a.667.667 0 0 1-1.334 0v-8c0-1.102-.897-2-2-2h-2V6c0 1.103-.897 2-2 2h-8c-1.103 0-2-.897-2-2l-.001-.667h-2c-1.102 0-2 .898-2 2v17.334c0 1.102.898 2 2 2h9.334a.667.667 0 1 1 0 1.333H3.334A3.336 3.336 0 0 1 0 24.667V7.333A3.337 3.337 0 0 1 3.334 4l1.999-.001v-.666c0-.368.3-.666.667-.666h2.067A3.34 3.34 0 0 1 11.334 0zM18 18.667A.667.667 0 1 1 18 20H4.666a.667.667 0 0 1 0-1.333H18zm0-4A.667.667 0 1 1 18 16H4.666a.667.667 0 0 1 0-1.333H18zm0-4A.667.667 0 1 1 18 12H4.666a.667.667 0 0 1 0-1.333H18zm-6.667-9.334c-1.103 0-2 .898-2 2A.667.667 0 0 1 8.666 4h-2v2c0 .367.3.667.667.667h8c.367 0 .667-.3.667-.667V4h-2a.667.667 0 0 1-.667-.667c0-1.102-.897-2-2-2z" fill="#9D9D9D" fill-rule="evenodd"/></svg>