<?xml version="1.0" encoding="UTF-8"?>
<svg width="32px" height="32px" viewBox="0 0 32 32" version="1.1" xmlns="http://www.w3.org/2000/svg" xmlns:xlink="http://www.w3.org/1999/xlink">
    <title>ico-ordini-ecommerce</title>
    <g id="Symbols" stroke="none" stroke-width="1" fill="none" fill-rule="evenodd">
        <path d="M12.7492063,26.0063492 C14.4012145,26.0063492 15.7460317,27.3511665 15.7460317,29.0031746 C15.7460317,30.6551827 14.4012145,32 12.7492063,32 C11.0971982,32 9.75238095,30.6551827 9.75238095,29.0031746 C9.75238095,27.3511665 11.0971982,26.0063492 12.7492063,26.0063492 Z M26.8359788,26.0063492 C28.4879869,26.0063492 29.8328042,27.3511665 29.8328042,29.0031746 C29.8328042,30.6551827 28.4879869,32 26.8359788,32 C25.1839707,32 23.8391534,30.6551827 23.8391534,29.0031746 C23.8391534,27.3511665 25.1839707,26.0063492 26.8359788,26.0063492 Z M12.7492063,27.6656085 C12.0118811,27.6656085 11.4116402,28.2658494 11.4116402,29.0031746 C11.4116402,29.7404998 12.0118811,30.3407407 12.7492063,30.3407407 C13.4865316,30.3407407 14.0867725,29.7404998 14.0867725,29.0031746 C14.0867725,28.2658494 13.4865316,27.6656085 12.7492063,27.6656085 Z M26.8359788,27.6656085 C26.0986536,27.6656085 25.4984127,28.2658494 25.4984127,29.0031746 C25.4984127,29.7404998 26.0986536,30.3407407 26.8359788,30.3407407 C27.5733041,30.3407407 28.173545,29.7404998 28.173545,29.0031746 C28.173545,28.2658494 27.5733041,27.6656085 26.8359788,27.6656085 Z M2.45502646,1.77635684e-15 C3.72591317,1.77635684e-15 5.0151234,1.21163598 5.36037958,2.76478252 L6.19128931,6.5015873 L31.1703704,6.5015873 C31.4265928,6.5015873 31.6676083,6.61885618 31.8237751,6.81964206 C31.9812736,7.02214019 32.0371319,7.28445051 31.9751235,7.53165744 L29.2498262,18.432846 C28.8684218,19.9594727 27.3260538,21.1640212 25.752381,21.1640212 L9.24444444,21.1640212 L9.24444444,22.5015873 C9.24444444,23.2389125 9.84468535,23.8391534 10.5820106,23.8391534 L31.1703704,23.8391534 C31.6282536,23.8391534 32,24.2108998 32,24.6687831 C32,25.1266663 31.6282536,25.4984127 31.1703704,25.4984127 L10.5820106,25.4984127 C8.93000248,25.4984127 7.58518519,24.1535954 7.58518519,22.5015873 L7.58518519,20.4525037 L4.7357776,7.60120729 C4.71610202,7.53555788 4.706085,7.49078796 4.6992662,7.44220395 L3.74103816,3.12487985 C3.56618344,2.33749054 2.93168188,1.65925926 2.45502646,1.65925926 L0.82962963,1.65925926 C0.371746391,1.65925926 1.13686838e-13,1.28751287 1.13686838e-13,0.82962963 C1.13686838e-13,0.371746391 0.371746391,1.77635684e-15 0.82962963,1.77635684e-15 Z M30.1075849,8.16084656 L6.55951179,8.16084656 L9.08012978,19.5047619 L25.752381,19.5047619 C26.5604083,19.5047619 27.444379,18.8141104 27.6394036,18.0302126 L30.1075849,8.16084656 Z" id="ico-ordini-ecommerce" fill="#9D9D9D" fill-rule="nonzero"></path>
    </g>
</svg>