<svg width="72" height="72" viewBox="0 0 72 72" fill="white" xmlns="http://www.w3.org/2000/svg" preserveAspectRatio="xMinYMid meet">
<path d="M70.82 29L66.09 27.95C65.39 25.31 64.34 22.78 62.97 20.41L65.58 16.32C65.96 15.73 65.87 14.95 65.38 14.45L57.54 6.62C57.04 6.12 56.27 6.04 55.67 6.42L51.59 9.02C49.22 7.65 46.69 6.6 44.05 5.9L43 1.18C42.85 0.49 42.24 0 41.54 0H30.46C29.76 0 29.15 0.49 29 1.18L27.95 5.9C25.31 6.6 22.78 7.65 20.41 9.02L16.32 6.42C15.73 6.04 14.95 6.12 14.45 6.62L6.62 14.45C6.12 14.95 6.04 15.72 6.42 16.32L9.02 20.41C7.65 22.78 6.6 25.31 5.9 27.95L1.18 29C0.49 29.15 0 29.76 0 30.46V41.54C0 42.24 0.49 42.85 1.18 43L5.91 44.05C6.61 46.69 7.66 49.22 9.03 51.59L6.43 55.67C6.05 56.26 6.14 57.04 6.63 57.54L14.46 65.38C14.96 65.88 15.73 65.96 16.33 65.58L20.41 62.97C22.78 64.34 25.3 65.39 27.95 66.09L29 70.82C29.15 71.51 29.76 72 30.46 72H41.54C42.24 72 42.85 71.51 43 70.82L44.05 66.09C46.69 65.39 49.22 64.34 51.59 62.97L55.67 65.58C56.26 65.96 57.04 65.87 57.54 65.38L65.38 57.54C65.88 57.04 65.96 56.27 65.58 55.67L62.97 51.59C64.34 49.22 65.39 46.7 66.09 44.05L70.82 43C71.51 42.85 72 42.24 72 41.54V30.46C72 29.76 71.51 29.15 70.82 29ZM69 40.33L64.54 41.32C63.98 41.44 63.54 41.88 63.4 42.44C62.71 45.41 61.54 48.22 59.93 50.81C59.63 51.3 59.63 51.92 59.94 52.41L62.4 56.26L56.27 62.39L52.42 59.93C51.93 59.62 51.31 59.62 50.82 59.92C48.23 61.53 45.41 62.7 42.45 63.39C41.89 63.52 41.45 63.96 41.33 64.53L40.33 69H31.66L30.67 64.54C30.55 63.98 30.11 63.54 29.55 63.4C26.58 62.71 23.77 61.54 21.18 59.93C20.69 59.63 20.07 59.63 19.58 59.94L15.73 62.4L9.6 56.27L12.06 52.42C12.37 51.93 12.37 51.31 12.07 50.82C10.46 48.23 9.29 45.41 8.6 42.45C8.47 41.89 8.03 41.45 7.46 41.33L3 40.33V31.66L7.46 30.67C8.02 30.55 8.46 30.11 8.6 29.55C9.29 26.59 10.46 23.77 12.07 21.18C12.37 20.69 12.37 20.07 12.06 19.58L9.6 15.73L15.73 9.6L19.58 12.06C20.07 12.37 20.69 12.38 21.18 12.07C23.78 10.46 26.59 9.29 29.55 8.6C30.11 8.47 30.55 8.03 30.67 7.46L31.66 3H40.33L41.32 7.46C41.44 8.02 41.88 8.46 42.44 8.6C45.4 9.29 48.22 10.46 50.81 12.07C51.3 12.38 51.92 12.37 52.41 12.06L56.26 9.6L62.39 15.73L59.93 19.58C59.62 20.07 59.62 20.69 59.92 21.18C61.53 23.77 62.7 26.59 63.39 29.55C63.52 30.11 63.96 30.55 64.53 30.67L69 31.66V40.33ZM36 15C24.42 15 15 24.42 15 36C15 47.58 24.42 57 36 57C47.58 57 57 47.58 57 36C57 24.42 47.58 15 36 15ZM36 54C26.07 54 18 45.93 18 36C18 26.07 26.07 18 36 18C45.93 18 54 26.07 54 36C54 45.93 45.93 54 36 54ZM47.56 27.44C48.15 28.03 48.15 28.98 47.56 29.56L33 44.12L24.44 35.56C23.85 34.97 23.85 34.02 24.44 33.44C25.03 32.86 25.98 32.85 26.56 33.44L33 39.88L45.44 27.44C46.03 26.85 46.97 26.85 47.56 27.44Z" fill="white"/>
</svg>
