<svg width="48" height="40" viewBox="0 0 48 40" fill="none" xmlns="http://www.w3.org/2000/svg">
    <path fill="white" fill-rule="nonzero" d="M17.522 21.447v.513c0 1.24.807 2.067 2.007 2.067 1.214 0 2.027-.854 2.027-2.127 0-1.247-.847-2.087-2.107-2.087h-.693v-1.92h.713c1.114 0 1.887-.813 1.887-1.966 0-1.127-.793-1.954-1.887-1.954-1.12 0-1.867.787-1.867 1.954v.5h-2.02v-.5c0-2.354 1.54-3.934 3.827-3.934 2.341 0 4.047 1.607 4.047 3.814 0 1.2-.513 2.273-1.413 2.96 1.08.673 1.673 1.806 1.673 3.2 0 2.346-1.733 4.053-4.12 4.053s-4.121-1.707-4.121-4.053v-.614h2.061v.094h-.014Zm11.448 4.566c-2.54 0-4-1.62-4-4.44v-5.086c0-2.86 1.46-4.5 4-4.5 2.541 0 4.001 1.64 4.001 4.5v5.086c0 2.82-1.46 4.44-4.001 4.44Zm0-1.86c1.347 0 2.027-.893 2.027-2.646V16.48c0-1.753-.68-2.647-2.027-2.647-1.346 0-2.026.894-2.026 2.647v5.027c0 1.76.68 2.646 2.026 2.646Zm9.722 8.1c.4.38.42 1.014.046 1.414A20.064 20.064 0 0 1 24.15 40C13.455 40 4.721 31.547 4.194 20.967H1a1 1 0 0 1-1-1c0-.18.06-.347.147-.494l-.014-.013 4.868-8.44 4.867 8.44-.013.007a.954.954 0 0 1 .146.493c0 .553-.446 1-1 1H6.194c.527 9.473 8.361 17.033 17.949 17.033 5.027 0 9.688-2.02 13.129-5.693.38-.4 1.013-.42 1.42-.047ZM5.001 15.027 2.734 18.96h4.534l-2.267-3.933Zm42.858 5.5.014.006-4.867 8.44-4.868-8.44.014-.006a.952.952 0 0 1-.147-.494 1 1 0 0 1 1-1h2.807C41.285 9.56 33.451 2.007 23.856 2.007c-5.027 0-9.687 2.02-13.128 5.693-.38.4-1.013.42-1.413.047a1.006 1.006 0 0 1-.047-1.414A20.068 20.068 0 0 1 23.856 0c10.695 0 19.423 8.453 19.95 19.033h3.193a1 1 0 0 1 1.001 1 .895.895 0 0 1-.141.494Zm-4.853 4.446 2.267-3.933h-4.534l2.267 3.933Z"/>
    </svg>
